<svg xmlns="http://www.w3.org/2000/svg" width="900" height="520" viewBox="0 0 900 520">
<rect width="100%" height="100%" fill="#FCFCFD"/>
<text x="32" y="42" font-family="Segoe UI, Arial" font-size="24" font-weight="700" fill="#1F2430">Revenue by category</text>
<text x="32" y="106.6" font-family="Segoe UI, Arial" font-size="14" fill="#1F2430">Fashion</text>
<rect x="190" y="80" width="590" height="38" rx="4" fill="#2E4780" opacity="0.82"/>
<text x="790" y="105.8" font-family="Consolas, monospace" font-size="13" fill="#464C55">$799.7K</text>
<text x="32" y="154.6" font-family="Segoe UI, Arial" font-size="14" fill="#1F2430">Home</text>
<rect x="190" y="128" width="524" height="38" rx="4" fill="#2E4780" opacity="0.82"/>
<text x="724" y="153.8" font-family="Consolas, monospace" font-size="13" fill="#464C55">$711.6K</text>
<text x="32" y="202.6" font-family="Segoe UI, Arial" font-size="14" fill="#1F2430">Office</text>
<rect x="190" y="176" width="514" height="38" rx="4" fill="#2E4780" opacity="0.82"/>
<text x="714" y="201.8" font-family="Consolas, monospace" font-size="13" fill="#464C55">$697.4K</text>
<text x="32" y="250.6" font-family="Segoe UI, Arial" font-size="14" fill="#1F2430">Fitness</text>
<rect x="190" y="224" width="505" height="38" rx="4" fill="#2E4780" opacity="0.82"/>
<text x="705" y="249.8" font-family="Consolas, monospace" font-size="13" fill="#464C55">$685.1K</text>
<text x="32" y="298.6" font-family="Segoe UI, Arial" font-size="14" fill="#1F2430">Grocery</text>
<rect x="190" y="272" width="491" height="38" rx="4" fill="#2E4780" opacity="0.82"/>
<text x="691" y="297.8" font-family="Consolas, monospace" font-size="13" fill="#464C55">$665.5K</text>
<text x="32" y="346.6" font-family="Segoe UI, Arial" font-size="14" fill="#1F2430">Outdoor</text>
<rect x="190" y="320" width="490" height="38" rx="4" fill="#2E4780" opacity="0.82"/>
<text x="690" y="345.8" font-family="Consolas, monospace" font-size="13" fill="#464C55">$665.1K</text>
<text x="32" y="394.6" font-family="Segoe UI, Arial" font-size="14" fill="#1F2430">Beauty</text>
<rect x="190" y="368" width="441" height="38" rx="4" fill="#2E4780" opacity="0.82"/>
<text x="641" y="393.8" font-family="Consolas, monospace" font-size="13" fill="#464C55">$598.0K</text>
<text x="32" y="442.6" font-family="Segoe UI, Arial" font-size="14" fill="#1F2430">Electronics</text>
<rect x="190" y="416" width="422" height="38" rx="4" fill="#2E4780" opacity="0.82"/>
<text x="622" y="441.8" font-family="Consolas, monospace" font-size="13" fill="#464C55">$572.7K</text>
</svg>
