<svg xmlns="http://www.w3.org/2000/svg" width="900" height="520" viewBox="0 0 900 520">
<rect width="100%" height="100%" fill="#FCFCFD"/>
<text x="32" y="42" font-family="Segoe UI, Arial" font-size="24" font-weight="700" fill="#1F2430">Retail Analytics: monthly revenue</text>
<line x1="72" y1="86.0" x2="868" y2="86.0" stroke="#E6E8F0" stroke-width="1"/>
<line x1="72" y1="176.5" x2="868" y2="176.5" stroke="#E6E8F0" stroke-width="1"/>
<line x1="72" y1="267.0" x2="868" y2="267.0" stroke="#E6E8F0" stroke-width="1"/>
<line x1="72" y1="357.5" x2="868" y2="357.5" stroke="#E6E8F0" stroke-width="1"/>
<line x1="72" y1="448.0" x2="868" y2="448.0" stroke="#E6E8F0" stroke-width="1"/>
<polyline points="72.0,86.0 118.8,87.3 165.6,316.2 212.5,202.1 259.3,364.1 306.1,183.1 352.9,246.0 399.8,448.0 446.6,180.1 493.4,328.4 540.2,189.7 587.1,280.6 633.9,272.9 680.7,196.3 727.5,309.0 774.4,294.5 821.2,141.5 868.0,190.2" fill="none" stroke="#2E4780" stroke-width="4" stroke-linecap="round" stroke-linejoin="round"/>
<circle cx="633.9" cy="272.9" r="5" fill="#FCFCFD" stroke="#2E4780" stroke-width="3"/>
<circle cx="680.7" cy="196.3" r="5" fill="#FCFCFD" stroke="#2E4780" stroke-width="3"/>
<circle cx="727.5" cy="309.0" r="5" fill="#FCFCFD" stroke="#2E4780" stroke-width="3"/>
<circle cx="774.4" cy="294.5" r="5" fill="#FCFCFD" stroke="#2E4780" stroke-width="3"/>
<circle cx="821.2" cy="141.5" r="5" fill="#FCFCFD" stroke="#2E4780" stroke-width="3"/>
<circle cx="868.0" cy="190.2" r="5" fill="#FCFCFD" stroke="#2E4780" stroke-width="3"/>
<text x="72.0" y="488" text-anchor="middle" font-family="Segoe UI, Arial" font-size="12" fill="#6F768A">Jul 2024</text>
<text x="165.6" y="488" text-anchor="middle" font-family="Segoe UI, Arial" font-size="12" fill="#6F768A">Sep 2024</text>
<text x="259.3" y="488" text-anchor="middle" font-family="Segoe UI, Arial" font-size="12" fill="#6F768A">Nov 2024</text>
<text x="352.9" y="488" text-anchor="middle" font-family="Segoe UI, Arial" font-size="12" fill="#6F768A">Jan 2025</text>
<text x="446.6" y="488" text-anchor="middle" font-family="Segoe UI, Arial" font-size="12" fill="#6F768A">Mar 2025</text>
<text x="540.2" y="488" text-anchor="middle" font-family="Segoe UI, Arial" font-size="12" fill="#6F768A">May 2025</text>
<text x="633.9" y="488" text-anchor="middle" font-family="Segoe UI, Arial" font-size="12" fill="#6F768A">Jul 2025</text>
<text x="727.5" y="488" text-anchor="middle" font-family="Segoe UI, Arial" font-size="12" fill="#6F768A">Sep 2025</text>
<text x="821.2" y="488" text-anchor="middle" font-family="Segoe UI, Arial" font-size="12" fill="#6F768A">Nov 2025</text>
</svg>
