<svg xmlns="http://www.w3.org/2000/svg" width="900" height="520" viewBox="0 0 900 520">
<rect width="100%" height="100%" fill="#FCFCFD"/>
<text x="32" y="42" font-family="Segoe UI, Arial" font-size="24" font-weight="700" fill="#1F2430">Revenue by region</text>
<text x="32" y="106.6" font-family="Segoe UI, Arial" font-size="14" fill="#1F2430">Texas</text>
<rect x="190" y="80" width="590" height="38" rx="4" fill="#2E4780" opacity="0.82"/>
<text x="790" y="105.8" font-family="Consolas, monospace" font-size="13" fill="#464C55">$461.2K</text>
<text x="32" y="154.6" font-family="Segoe UI, Arial" font-size="14" fill="#1F2430">Southwest</text>
<rect x="190" y="128" width="585" height="38" rx="4" fill="#2E4780" opacity="0.82"/>
<text x="785" y="153.8" font-family="Consolas, monospace" font-size="13" fill="#464C55">$457.9K</text>
<text x="32" y="202.6" font-family="Segoe UI, Arial" font-size="14" fill="#1F2430">Mountain</text>
<rect x="190" y="176" width="584" height="38" rx="4" fill="#2E4780" opacity="0.82"/>
<text x="784" y="201.8" font-family="Consolas, monospace" font-size="13" fill="#464C55">$457.2K</text>
<text x="32" y="250.6" font-family="Segoe UI, Arial" font-size="14" fill="#1F2430">California</text>
<rect x="190" y="224" width="580" height="38" rx="4" fill="#2E4780" opacity="0.82"/>
<text x="780" y="249.8" font-family="Consolas, monospace" font-size="13" fill="#464C55">$454.0K</text>
<text x="32" y="298.6" font-family="Segoe UI, Arial" font-size="14" fill="#1F2430">Midwest</text>
<rect x="190" y="272" width="578" height="38" rx="4" fill="#2E4780" opacity="0.82"/>
<text x="778" y="297.8" font-family="Consolas, monospace" font-size="13" fill="#464C55">$452.3K</text>
<text x="32" y="346.6" font-family="Segoe UI, Arial" font-size="14" fill="#1F2430">Canada</text>
<rect x="190" y="320" width="577" height="38" rx="4" fill="#2E4780" opacity="0.82"/>
<text x="777" y="345.8" font-family="Consolas, monospace" font-size="13" fill="#464C55">$451.2K</text>
<text x="32" y="394.6" font-family="Segoe UI, Arial" font-size="14" fill="#1F2430">Great Lakes</text>
<rect x="190" y="368" width="575" height="38" rx="4" fill="#2E4780" opacity="0.82"/>
<text x="775" y="393.8" font-family="Consolas, monospace" font-size="13" fill="#464C55">$449.7K</text>
<text x="32" y="442.6" font-family="Segoe UI, Arial" font-size="14" fill="#1F2430">Pacific Northwest</text>
<rect x="190" y="416" width="574" height="38" rx="4" fill="#2E4780" opacity="0.82"/>
<text x="774" y="441.8" font-family="Consolas, monospace" font-size="13" fill="#464C55">$448.9K</text>
</svg>
